<?xml version="1.0" encoding="UTF-8"?>
<svg id="Capa_2" data-name="Capa 2" xmlns="http://www.w3.org/2000/svg" xmlns:xlink="http://www.w3.org/1999/xlink" viewBox="0 0 193.09 86.4">
  <defs>
    <style>
      .cls-1, .cls-2 {
        fill: #39a900;
      }

      .cls-3, .cls-4 {
        fill: none;
      }

      .cls-5 {
        opacity: 0;
      }

      .cls-2 {
        fill-rule: evenodd;
      }

      .cls-6 {
        clip-path: url(#clippath);
      }

      .cls-7 {
        fill: #007832;
      }

      .cls-4 {
        stroke: #706f6e;
        stroke-width: 2.25px;
      }
    </style>
    <clipPath id="clippath">
      <rect class="cls-3" y="0" width="88.5" height="86.25"/>
    </clipPath>
  </defs>
  <g id="Capa_1-2" data-name="Capa 1">
    <g>
      <g class="cls-6">
        <path class="cls-2" d="M67.59,35.12h-5.69l8.79-12.7h6.3l8.39,12.7h-6.32l-1.28-2.29h-8.81l-1.37,2.29h0ZM76.24,30.06l-2.72-4.62-2.87,4.62h5.59,0ZM41.24,35.12v-12.7h7.19l7.69,8.52v-8.52h5.45v12.7h-7.45l-7.44-8.55v8.55h-5.44ZM23.39,35.12v-12.7h15.12v2.74h-9.44v2.02h8.73v2.7h-8.73v2.46h9.8v2.77h-15.48,0ZM8.86,30.92v.03c-.03.16-.05.28-.05.35,0,.49.28.86.84,1.1.57.24,1.44.36,2.62.36.9,0,1.6-.1,2.11-.3s.77-.47.77-.82c0-.52-1.01-.95-3.03-1.28-.24-.04-.41-.07-.53-.09-.13-.03-.32-.06-.57-.09-3.2-.52-5.27-1.09-6.17-1.71-.44-.3-.78-.65-1.01-1.06-.22-.41-.34-.87-.34-1.38,0-1.26.73-2.2,2.2-2.86,1.47-.65,3.62-.98,6.46-.98s4.87.31,6.22.92c1.35.61,2.02,1.56,2.02,2.84v.15h-5.3v-.06c0-.44-.27-.77-.8-.99-.54-.23-1.32-.34-2.36-.34-.8,0-1.43.08-1.86.24-.44.16-.66.39-.66.69,0,.53,1.16.98,3.47,1.35.44.07.8.12,1.05.16,1.65.28,2.82.51,3.52.71.7.2,1.3.43,1.81.7.56.31,1.01.7,1.31,1.17.31.47.46.98.46,1.55,0,1.29-.8,2.28-2.4,2.98-1.6.7-3.91,1.04-6.92,1.04s-5.13-.34-6.46-1c-1.33-.67-1.99-1.74-1.99-3.22v-.19h5.58Z"/>
        <path class="cls-2" d="M16.83,79.9l-5.07-4.77,15.44-26.8c.84-1.46-.21-3.29-1.9-3.29H.02v-6.7h40.69l-23.88,41.56h0Z"/>
        <path class="cls-2" d="M71.82,79.9l5.07-4.77-15.44-26.8c-.84-1.46.21-3.29,1.9-3.29h25.28v-6.7h-40.69l23.88,41.56h0Z"/>
        <path class="cls-2" d="M44.02,45.42c.03-.06.06-.09.06-.09l22.93,37.9-6.09,3.17-14.77-24.74c-.87-1.46-2.98-1.46-3.85,0-4.93,8.3-14.68,24.74-14.68,24.74l-5.96-2.95s21.14-35.94,22.36-38.02h0Z"/>
        <path class="cls-1" d="M53.78,9.46c0,.62-.06,1.24-.18,1.84-.12.61-.3,1.2-.54,1.77s-.53,1.12-.87,1.63c-.34.52-.74.99-1.18,1.43-.44.44-.92.83-1.43,1.18-.52.34-1.06.64-1.63.87-.57.24-1.16.42-1.77.54-.61.12-1.22.18-1.84.18s-1.24-.06-1.84-.18c-.61-.12-1.2-.3-1.77-.54-.57-.24-1.12-.53-1.63-.87-.52-.34-.99-.74-1.43-1.18-.44-.44-.83-.92-1.18-1.43-.34-.52-.64-1.06-.87-1.63s-.42-1.16-.54-1.77-.18-1.22-.18-1.84c0-.62.06-1.24.18-1.84.12-.61.3-1.2.54-1.77s.53-1.12.87-1.63c.34-.52.74-.99,1.18-1.43.44-.44.92-.83,1.43-1.18.52-.34,1.06-.64,1.63-.87s1.16-.42,1.77-.54C43.09.06,43.7,0,44.32,0s1.24.06,1.84.18c.61.12,1.2.3,1.77.54s1.12.53,1.63.87c.52.34.99.74,1.43,1.18.44.44.83.92,1.18,1.43.34.52.64,1.06.87,1.63s.42,1.16.54,1.77c.12.61.18,1.22.18,1.84Z"/>
      </g>
      <line class="cls-4" x1="106.89" y1="0" x2="106.89" y2="86.4"/>
      <path class="cls-7" d="M137.78,58.75c-1.21,0-2.37-.17-3.48-.5s-2.17-.87-3.17-1.61c-1-.73-1.87-1.63-2.61-2.7-.74-1.06-1.33-2.38-1.76-3.95-.43-1.57-.65-3.3-.65-5.2,0-2.44.36-4.67,1.08-6.69.72-2.02,1.72-3.72,2.99-5.1,1.28-1.39,2.81-2.46,4.6-3.22,1.79-.76,3.74-1.15,5.86-1.16,1.65,0,3.36.2,5.16.61,1.79.41,3.31.92,4.56,1.53.54.37.78.96.74,1.77-.03.43-.13,1.32-.3,2.69-.17,1.37-.28,2.26-.32,2.69-.04.49-.24.77-.61.83-.36.06-.7-.12-1-.55-1.04-1.29-2.2-2.28-3.48-2.97-1.28-.69-2.89-1.04-4.84-1.04-2.24,0-4.11.92-5.62,2.76-1.51,1.84-2.26,4.39-2.26,7.66,0,1.54.19,2.88.57,4.01.38,1.14.91,2.03,1.59,2.69.69.65,1.45,1.13,2.3,1.43.85.3,1.8.45,2.84.43,1.95,0,3.52-.6,4.7-1.81,1.19-1.21,1.78-2.7,1.78-4.47,0-.95-.09-1.71-.28-2.3-.19-.59-.5-1.2-.94-1.83-.25-.27-.3-.57-.16-.9.14-.32.41-.48.82-.48,2.09-.04,4.17-.04,6.26,0,.66,0,1.01.34,1.05,1.01.53,5.56.79,10.54.76,14.96,0,.7-.34,1.09-1.03,1.17-1.51.08-3.22.07-5.12-.04-.32-.03-.57-.14-.75-.34-.19-.2-.26-.46-.22-.79.18-1.36.27-2.12.29-2.28.04-.45-.07-.71-.33-.77-.26-.06-.49.11-.68.52-.91,1.4-2.03,2.41-3.36,3.03s-3,.93-4.99.93Z"/>
      <path class="cls-7" d="M159.64,58.63c-.99,0-1.82-.06-2.49-.17-.32-.04-.57-.17-.76-.37-.19-.21-.29-.47-.29-.8,0-5.97.2-15.06.6-27.27.04-.58.39-.93,1.05-1.07.54-.11,1.19-.16,1.98-.16.73,0,1.32.06,1.77.16.29.07.53.2.72.38.19.19.29.42.31.69.41,12.64.62,21.73.62,27.27,0,.32-.1.58-.3.79-.2.21-.45.35-.75.42-.75.08-1.57.12-2.45.12Z"/>
      <path class="cls-7" d="M168.26,58.63c-1.07,0-1.87-.06-2.41-.17-.85-.14-1.13-.54-.84-1.21,1.33-4.87,2.94-9.8,4.83-14.78,1.89-4.98,3.74-9.25,5.55-12.8.22-.4.57-.64,1.05-.72.56-.11,1.42-.16,2.57-.16s2,.06,2.61.16c.48.08.83.32,1.05.72,1.78,3.51,3.61,7.77,5.49,12.76,1.88,4.99,3.49,9.95,4.84,14.86.14.34.13.62-.01.83-.14.21-.41.34-.79.38-.6.08-1.52.12-2.74.12s-2.17-.06-2.88-.17c-.49-.11-.74-.39-.74-.84.04-1.55-.17-3.16-.64-4.84-.71-1.18-2.05-1.79-4.01-1.83-1.47-.04-2.93-.04-4.38,0-1.87.07-3.18.68-3.95,1.83-.49,1.65-.71,3.26-.64,4.84,0,.45-.28.73-.84.84-.64.11-1.68.17-3.11.17ZM178.07,47.68c.62.06,1.24.06,1.85,0,1-.04,1.71-.27,2.13-.69s.5-.99.24-1.72c-.34-1.66-1.1-4.23-2.28-7.72-.69-1.62-1.37-1.62-2.06,0-1.06,3.13-1.79,5.7-2.2,7.72-.27.74-.21,1.32.2,1.73.4.41,1.11.64,2.13.68Z"/>
      <rect class="cls-5" width="88.65" height="86.4"/>
      <rect class="cls-5" x="105.94" width="1.91" height="86.4"/>
    </g>
  </g>
</svg>